<?xml version="1.0" encoding="UTF-8" standalone="no"?>
<!DOCTYPE svg PUBLIC "-//W3C//DTD SVG 1.1//EN" "http://www.w3.org/Graphics/SVG/1.1/DTD/svg11.dtd">
<svg width="100%" height="100%" viewBox="0 0 355 355" version="1.1" xmlns="http://www.w3.org/2000/svg" xmlns:xlink="http://www.w3.org/1999/xlink" xml:space="preserve" xmlns:serif="http://www.serif.com/" style="fill-rule:evenodd;clip-rule:evenodd;stroke-linecap:round;stroke-linejoin:round;stroke-miterlimit:1.5;">
    <rect x="0" y="0" width="354.331" height="354.331" style="fill:url(#_Radial1);stroke:black;stroke-width:1px;"/>
    <g id="Regular-S" transform="matrix(2.60408,0,0,2.60408,20.1594,268.842)">
        <path d="M9.766,-25C9.766,-16.797 13.867,-12.744 22.217,-12.744L23.535,-12.744L23.535,-38.623C23.535,-50 30.225,-56.592 41.699,-56.592L47.461,-56.592C48.096,-56.592 48.291,-56.69 48.633,-57.08L51.367,-59.912C54.541,-63.184 57.861,-64.697 62.256,-64.697L76.953,-64.697C81.397,-64.697 84.912,-63.135 87.94,-59.815L89.551,-58.008C89.844,-57.666 90.186,-57.227 90.43,-57.129L90.43,-63.77C90.43,-71.973 86.279,-76.025 77.979,-76.025L22.217,-76.025C13.867,-76.025 9.766,-71.973 9.766,-63.77L9.766,-25Z" style="fill:rgb(149,149,149);fill-rule:nonzero;"/>
        <path d="M41.699,5.615L97.461,5.615C105.811,5.615 109.912,1.563 109.912,-6.641L109.912,-38.623C109.912,-46.826 105.811,-50.879 97.461,-50.879L91.748,-50.879C88.916,-50.879 87.988,-51.123 86.475,-52.832L83.643,-56.006C81.738,-58.154 79.834,-58.984 76.953,-58.984L62.256,-58.984C59.326,-58.984 57.52,-58.106 55.518,-56.006L52.49,-52.832C50.928,-51.318 50.244,-50.879 47.461,-50.879L41.699,-50.879C33.35,-50.879 29.248,-46.826 29.248,-38.623L29.248,-6.641C29.248,1.563 33.35,5.615 41.699,5.615ZM69.629,-6.152C59.473,-6.152 51.221,-14.355 51.221,-24.561C51.221,-34.668 59.473,-42.92 69.629,-42.92C79.785,-42.92 87.988,-34.668 87.988,-24.561C87.988,-14.355 79.785,-6.152 69.629,-6.152ZM69.629,-12.842C76.074,-12.842 81.299,-18.066 81.299,-24.561C81.299,-30.957 76.074,-36.231 69.629,-36.231C63.184,-36.231 57.91,-30.957 57.91,-24.561C57.91,-18.066 63.184,-12.842 69.629,-12.842ZM92.92,-33.057C90.43,-33.057 88.477,-35.01 88.477,-37.5C88.477,-39.941 90.43,-41.992 92.92,-41.992C95.361,-41.992 97.363,-39.941 97.363,-37.5C97.363,-35.01 95.361,-33.057 92.92,-33.057Z" style="fill:rgb(149,149,149);fill-rule:nonzero;"/>
    </g>
    <defs>
        <radialGradient id="_Radial1" cx="0" cy="0" r="1" gradientUnits="userSpaceOnUse" gradientTransform="matrix(188.976,188.976,-188.976,188.976,165.354,165.354)"><stop offset="0" style="stop-color:rgb(36,36,36);stop-opacity:1"/><stop offset="1" style="stop-color:rgb(65,65,65);stop-opacity:1"/></radialGradient>
    </defs>
</svg>
